<?xml version="1.0" encoding="utf-8"?>
<!-- Generator: Adobe Illustrator 16.0.0, SVG Export Plug-In . SVG Version: 6.00 Build 0)  -->
<!DOCTYPE svg PUBLIC "-//W3C//DTD SVG 1.1//EN" "http://www.w3.org/Graphics/SVG/1.1/DTD/svg11.dtd">
<svg version="1.1" id="Layer_1" xmlns="http://www.w3.org/2000/svg" xmlns:xlink="http://www.w3.org/1999/xlink" x="0px" y="0px"
	 width="281.5px" height="85.75px" viewBox="0 0 281.5 85.75" enable-background="new 0 0 281.5 85.75" xml:space="preserve">
<g>
	<g>
		<path fill="#2E2A25" d="M58.853,67.579h2.644v16.823h-2.644V67.579z"/>
		<path fill="#2E2A25" d="M65.82,67.579h4.182c2.644,0,3.941,1.466,3.941,4.158v8.507c0,2.692-1.298,4.158-3.941,4.158H65.82V67.579
			z M68.464,69.982v12.016h1.489c0.842,0,1.347-0.433,1.347-1.634v-8.748c0-1.202-0.505-1.634-1.347-1.634H68.464z"/>
		<path fill="#2E2A25" d="M80.669,74.668h3.629v2.403h-3.629v4.927h4.566v2.403h-7.21V67.579h7.21v2.403h-4.566V74.668z"/>
		<path fill="#2E2A25" d="M97.826,84.401h-2.668l-0.457-3.052h-3.244L91,84.401h-2.427l2.691-16.823h3.869L97.826,84.401z
			 M91.794,79.066h2.547l-1.273-8.507L91.794,79.066z"/>
		<path fill="#2E2A25" d="M105.009,67.386c2.571,0,3.894,1.538,3.894,4.23v0.649h-2.5v-0.817c0-1.202-0.48-1.658-1.321-1.658
			c-0.842,0-1.322,0.457-1.322,1.658c0,3.461,5.167,4.11,5.167,8.916c0,2.692-1.346,4.23-3.941,4.23s-3.941-1.538-3.941-4.23V79.21
			h2.5v1.322c0,1.202,0.528,1.634,1.369,1.634c0.842,0,1.37-0.433,1.37-1.634c0-3.461-5.167-4.11-5.167-8.916
			C101.115,68.924,102.438,67.386,105.009,67.386z"/>
		<path fill="#2E2A25" d="M118.246,67.579h8.172v2.403h-2.765v14.419h-2.644V69.982h-2.764V67.579z"/>
		<path fill="#2E2A25" d="M129.804,71.616c0-2.692,1.418-4.23,4.013-4.23c2.596,0,4.014,1.538,4.014,4.23v8.748
			c0,2.692-1.418,4.23-4.014,4.23c-2.595,0-4.013-1.538-4.013-4.23V71.616z M132.447,80.532c0,1.202,0.528,1.658,1.369,1.658
			c0.842,0,1.37-0.457,1.37-1.658v-9.084c0-1.202-0.528-1.658-1.37-1.658c-0.841,0-1.369,0.457-1.369,1.658V80.532z"/>
		<path fill="#2E2A25" d="M153.591,84.401c-0.144-0.433-0.24-0.697-0.24-2.067v-2.644c0-1.562-0.528-2.139-1.73-2.139h-0.912v6.849
			h-2.645V67.579h3.99c2.739,0,3.917,1.273,3.917,3.869v1.322c0,1.73-0.553,2.86-1.73,3.413c1.321,0.553,1.755,1.827,1.755,3.581
			v2.595c0,0.817,0.023,1.418,0.288,2.043H153.591z M150.708,69.982v5.167h1.033c0.984,0,1.586-0.433,1.586-1.778v-1.659
			c0-1.201-0.408-1.73-1.346-1.73H150.708z"/>
		<path fill="#2E2A25" d="M162.769,74.668h3.629v2.403h-3.629v4.927h4.566v2.403h-7.209V67.579h7.209v2.403h-4.566V74.668z"/>
		<path fill="#2E2A25" d="M174.927,67.386c2.571,0,3.893,1.538,3.893,4.23v0.649h-2.499v-0.817c0-1.202-0.481-1.658-1.321-1.658
			c-0.842,0-1.322,0.457-1.322,1.658c0,3.461,5.167,4.11,5.167,8.916c0,2.692-1.346,4.23-3.941,4.23s-3.941-1.538-3.941-4.23V79.21
			h2.499v1.322c0,1.202,0.529,1.634,1.37,1.634s1.37-0.433,1.37-1.634c0-3.461-5.167-4.11-5.167-8.916
			C171.033,68.924,172.354,67.386,174.927,67.386z"/>
		<path fill="#2E2A25" d="M185.282,67.579v12.978c0,1.202,0.528,1.634,1.369,1.634c0.842,0,1.37-0.433,1.37-1.634V67.579h2.499
			v12.809c0,2.692-1.346,4.23-3.941,4.23s-3.941-1.538-3.941-4.23V67.579H185.282z"/>
		<path fill="#2E2A25" d="M194.724,67.579h2.645v14.419h4.35v2.403h-6.994V67.579z"/>
		<path fill="#2E2A25" d="M203.397,67.579h8.172v2.403h-2.765v14.419h-2.644V69.982h-2.764V67.579z"/>
		<path fill="#2E2A25" d="M218.728,67.386c2.572,0,3.894,1.538,3.894,4.23v0.649h-2.499v-0.817c0-1.202-0.481-1.658-1.322-1.658
			c-0.842,0-1.322,0.457-1.322,1.658c0,3.461,5.168,4.11,5.168,8.916c0,2.692-1.346,4.23-3.941,4.23s-3.941-1.538-3.941-4.23V79.21
			h2.499v1.322c0,1.202,0.528,1.634,1.37,1.634c0.841,0,1.369-0.433,1.369-1.634c0-3.461-5.166-4.11-5.166-8.916
			C214.835,68.924,216.156,67.386,218.728,67.386z"/>
	</g>
</g>
<g>
	<path fill="#2E2A25" d="M247.254,19.172c-3.88-3.818-8.73-5.729-14.554-5.729c-5.82,0-10.704,1.964-14.648,5.888
		c-3.942,3.922-5.911,8.73-5.911,14.425c0,5.75,1.942,10.574,5.823,14.472c3.879,3.895,8.916,5.841,15.099,5.841
		c2.429,0,4.718-0.359,6.871-1.078c2.152-0.721,3.851-1.513,5.095-2.384c1.241-0.868,2.379-1.873,3.408-3.011
		c1.034-1.136,1.684-1.931,1.956-2.382c0.275-0.447,0.473-0.792,0.593-1.031l-8.187-4.135l-0.909,1.256
		c-0.546,0.898-1.605,1.784-3.183,2.65c-1.579,0.873-3.397,1.306-5.46,1.306c-2.247,0-4.306-0.548-6.188-1.642
		c-1.882-1.09-3.307-2.584-4.275-4.477l30.477-5.755C253.138,27.734,251.137,22.996,247.254,19.172z M221.585,32.135
		c0.304-2.993,1.486-5.39,3.548-7.186c2.062-1.801,4.579-2.698,7.55-2.698c4.67,0,7.975,1.974,9.915,5.92L221.585,32.135z"/>
	<path fill="#2E2A25" d="M150.838,13.591c-11.183,0-20.244,9.066-20.244,20.244c0,11.184,9.062,20.246,20.244,20.246
		c11.18,0,20.243-9.062,20.243-20.246C171.081,22.658,162.018,13.591,150.838,13.591z M150.838,45.294
		c-6.328,0-11.459-5.129-11.459-11.459c0-6.326,5.131-11.455,11.459-11.455c6.326,0,11.455,5.129,11.455,11.455
		C162.293,40.166,157.164,45.294,150.838,45.294z"/>
	<polygon fill="#2E2A25" points="96.986,1.984 87.45,1.984 87.45,54.046 96.986,54.046 96.986,22.525 103.942,22.525 
		103.942,13.605 96.986,13.605 	"/>
	<polygon fill="#2E2A25" points="212.343,14.517 201.506,14.517 185.67,33.042 185.67,1.984 176.129,1.984 176.129,54.046 
		185.67,54.046 185.67,35.054 200.021,54.046 212.34,54.046 196.227,33.369 	"/>
	<path fill="#2E2A25" d="M61.065,32.058v21.988h9.536V32.597c0,0-0.619-10.118,11.764-10.118v-8.874
		C82.365,13.605,61.065,13.042,61.065,32.058z"/>
	<path fill="#2E2A25" d="M115.81,35.05c0,0,0.615,10.117-11.768,10.117v8.876c0,0,21.303,0.557,21.303-18.453v-21.99h-9.535V35.05z"
		/>
	<path fill="#2E2A25" d="M258.289,32.058v21.988h9.538V32.597c0,0-0.618-10.118,11.764-10.118v-8.874
		C279.591,13.605,258.289,13.042,258.289,32.058z"/>
	<path fill="#2E2A25" d="M22.581,1.696L1.908,54.046h10.928l3.43-9.244H41.82l3.558,9.244H55.92L35.162,1.696H22.581z
		 M20.355,35.197l8.795-23.326l8.976,23.326H20.355z"/>
</g>
</svg>
